<svg id="wave" style="transform:rotate(0deg); transition: 0.3s" viewBox="0 0 1440 130" version="1.1" xmlns="http://www.w3.org/2000/svg"><defs><linearGradient id="sw-gradient-0" x1="0" x2="0" y1="1" y2="0"><stop stop-color="rgba(243, 244, 245, 1)" offset="0%"></stop><stop stop-color="rgba(243, 244, 245, 1)" offset="100%"></stop></linearGradient></defs><path style="transform:translate(0, 0px); opacity:1" fill="url(#sw-gradient-0)" d="M0,65L48,62.8C96,61,192,56,288,45.5C384,35,480,17,576,10.8C672,4,768,9,864,28.2C960,48,1056,82,1152,99.7C1248,117,1344,117,1440,99.7C1536,82,1632,48,1728,39C1824,30,1920,48,2016,60.7C2112,74,2208,82,2304,86.7C2400,91,2496,91,2592,88.8C2688,87,2784,82,2880,82.3C2976,82,3072,87,3168,86.7C3264,87,3360,82,3456,80.2C3552,78,3648,78,3744,67.2C3840,56,3936,35,4032,41.2C4128,48,4224,82,4320,86.7C4416,91,4512,65,4608,52C4704,39,4800,39,4896,34.7C4992,30,5088,22,5184,19.5C5280,17,5376,22,5472,32.5C5568,43,5664,61,5760,60.7C5856,61,5952,43,6048,49.8C6144,56,6240,87,6336,95.3C6432,104,6528,91,6624,71.5C6720,52,6816,26,6864,13L6912,0L6912,130L6864,130C6816,130,6720,130,6624,130C6528,130,6432,130,6336,130C6240,130,6144,130,6048,130C5952,130,5856,130,5760,130C5664,130,5568,130,5472,130C5376,130,5280,130,5184,130C5088,130,4992,130,4896,130C4800,130,4704,130,4608,130C4512,130,4416,130,4320,130C4224,130,4128,130,4032,130C3936,130,3840,130,3744,130C3648,130,3552,130,3456,130C3360,130,3264,130,3168,130C3072,130,2976,130,2880,130C2784,130,2688,130,2592,130C2496,130,2400,130,2304,130C2208,130,2112,130,2016,130C1920,130,1824,130,1728,130C1632,130,1536,130,1440,130C1344,130,1248,130,1152,130C1056,130,960,130,864,130C768,130,672,130,576,130C480,130,384,130,288,130C192,130,96,130,48,130L0,130Z"></path></svg>