<svg id="wave" style="transform:rotate(180deg); transition: 0.3s" viewBox="0 0 1440 150" version="1.1" xmlns="http://www.w3.org/2000/svg"><defs><linearGradient id="sw-gradient-0" x1="0" x2="0" y1="1" y2="0"><stop stop-color="rgba(243, 244, 245, 1)" offset="0%"></stop><stop stop-color="rgba(243, 244, 245, 1)" offset="100%"></stop></linearGradient></defs><path style="transform:translate(0, 0px); opacity:1" fill="url(#sw-gradient-0)" d="M0,105L48,105C96,105,192,105,288,87.5C384,70,480,35,576,30C672,25,768,50,864,62.5C960,75,1056,75,1152,82.5C1248,90,1344,105,1440,97.5C1536,90,1632,60,1728,40C1824,20,1920,10,2016,7.5C2112,5,2208,10,2304,30C2400,50,2496,85,2592,90C2688,95,2784,70,2880,55C2976,40,3072,35,3168,45C3264,55,3360,80,3456,75C3552,70,3648,35,3744,30C3840,25,3936,50,4032,50C4128,50,4224,25,4320,17.5C4416,10,4512,20,4608,40C4704,60,4800,90,4896,105C4992,120,5088,120,5184,100C5280,80,5376,40,5472,22.5C5568,5,5664,10,5760,25C5856,40,5952,65,6048,65C6144,65,6240,40,6336,27.5C6432,15,6528,15,6624,27.5C6720,40,6816,65,6864,77.5L6912,90L6912,150L6864,150C6816,150,6720,150,6624,150C6528,150,6432,150,6336,150C6240,150,6144,150,6048,150C5952,150,5856,150,5760,150C5664,150,5568,150,5472,150C5376,150,5280,150,5184,150C5088,150,4992,150,4896,150C4800,150,4704,150,4608,150C4512,150,4416,150,4320,150C4224,150,4128,150,4032,150C3936,150,3840,150,3744,150C3648,150,3552,150,3456,150C3360,150,3264,150,3168,150C3072,150,2976,150,2880,150C2784,150,2688,150,2592,150C2496,150,2400,150,2304,150C2208,150,2112,150,2016,150C1920,150,1824,150,1728,150C1632,150,1536,150,1440,150C1344,150,1248,150,1152,150C1056,150,960,150,864,150C768,150,672,150,576,150C480,150,384,150,288,150C192,150,96,150,48,150L0,150Z"></path></svg>