<svg id="wave" style="transform:rotate(180deg); transition: 0.3s" viewBox="0 0 1440 140" version="1.1" xmlns="http://www.w3.org/2000/svg"><defs><linearGradient id="sw-gradient-0" x1="0" x2="0" y1="1" y2="0"><stop stop-color="rgba(243, 244, 245, 1)" offset="0%"></stop><stop stop-color="rgba(243, 244, 245, 1)" offset="100%"></stop></linearGradient></defs><path style="transform:translate(0, 0px); opacity:1" fill="url(#sw-gradient-0)" d="M0,112L60,105C120,98,240,84,360,84C480,84,600,98,720,93.3C840,89,960,65,1080,67.7C1200,70,1320,98,1440,102.7C1560,107,1680,89,1800,72.3C1920,56,2040,42,2160,42C2280,42,2400,56,2520,65.3C2640,75,2760,79,2880,70C3000,61,3120,37,3240,32.7C3360,28,3480,42,3600,39.7C3720,37,3840,19,3960,30.3C4080,42,4200,84,4320,91C4440,98,4560,70,4680,53.7C4800,37,4920,33,5040,35C5160,37,5280,47,5400,60.7C5520,75,5640,93,5760,88.7C5880,84,6000,56,6120,37.3C6240,19,6360,9,6480,7C6600,5,6720,9,6840,30.3C6960,51,7080,89,7200,95.7C7320,103,7440,79,7560,65.3C7680,51,7800,47,7920,46.7C8040,47,8160,51,8280,49C8400,47,8520,37,8580,32.7L8640,28L8640,140L8580,140C8520,140,8400,140,8280,140C8160,140,8040,140,7920,140C7800,140,7680,140,7560,140C7440,140,7320,140,7200,140C7080,140,6960,140,6840,140C6720,140,6600,140,6480,140C6360,140,6240,140,6120,140C6000,140,5880,140,5760,140C5640,140,5520,140,5400,140C5280,140,5160,140,5040,140C4920,140,4800,140,4680,140C4560,140,4440,140,4320,140C4200,140,4080,140,3960,140C3840,140,3720,140,3600,140C3480,140,3360,140,3240,140C3120,140,3000,140,2880,140C2760,140,2640,140,2520,140C2400,140,2280,140,2160,140C2040,140,1920,140,1800,140C1680,140,1560,140,1440,140C1320,140,1200,140,1080,140C960,140,840,140,720,140C600,140,480,140,360,140C240,140,120,140,60,140L0,140Z"><path style="transform:translate(0, 0px); opacity:1" fill="url(#sw-gradient-0)" d="M0,112L60,105C120,98,240,84,360,84C480,84,600,98,720,93.3C840,89,960,65,1080,67.7C1200,70,1320,98,1440,102.7C1560,107,1680,89,1800,72.3C1920,56,2040,42,2160,42C2280,42,2400,56,2520,65.3C2640,75,2760,79,2880,70C3000,61,3120,37,3240,32.7C3360,28,3480,42,3600,39.7C3720,37,3840,19,3960,30.3C4080,42,4200,84,4320,91C4440,98,4560,70,4680,53.7C4800,37,4920,33,5040,35C5160,37,5280,47,5400,60.7C5520,75,5640,93,5760,88.7C5880,84,6000,56,6120,37.3C6240,19,6360,9,6480,7C6600,5,6720,9,6840,30.3C6960,51,7080,89,7200,95.7C7320,103,7440,79,7560,65.3C7680,51,7800,47,7920,46.7C8040,47,8160,51,8280,49C8400,47,8520,37,8580,32.7L8640,28L8640,140L8580,140C8520,140,8400,140,8280,140C8160,140,8040,140,7920,140C7800,140,7680,140,7560,140C7440,140,7320,140,7200,140C7080,140,6960,140,6840,140C6720,140,6600,140,6480,140C6360,140,6240,140,6120,140C6000,140,5880,140,5760,140C5640,140,5520,140,5400,140C5280,140,5160,140,5040,140C4920,140,4800,140,4680,140C4560,140,4440,140,4320,140C4200,140,4080,140,3960,140C3840,140,3720,140,3600,140C3480,140,3360,140,3240,140C3120,140,3000,140,2880,140C2760,140,2640,140,2520,140C2400,140,2280,140,2160,140C2040,140,1920,140,1800,140C1680,140,1560,140,1440,140C1320,140,1200,140,1080,140C960,140,840,140,720,140C600,140,480,140,360,140C240,140,120,140,60,140L0,140Z"></path></path></svg>