 <svg id="wave" style="transform:rotate(0deg); transition: 0.3s" viewBox="0 0 1440 150" version="1.1" xmlns="http://www.w3.org/2000/svg"><defs><linearGradient id="sw-gradient-0" x1="0" x2="0" y1="1" y2="0"><stop stop-color="rgba(243, 244, 245, 1)" offset="0%"></stop><stop stop-color="rgba(243, 244, 245, 1)" offset="100%"></stop></linearGradient></defs><path style="transform:translate(0, 0px); opacity:1" fill="url(#sw-gradient-0)" d="M0,90L40,90C80,90,160,90,240,80C320,70,400,50,480,52.5C560,55,640,80,720,95C800,110,880,115,960,117.5C1040,120,1120,120,1200,115C1280,110,1360,100,1440,102.5C1520,105,1600,120,1680,110C1760,100,1840,65,1920,55C2000,45,2080,60,2160,75C2240,90,2320,105,2400,105C2480,105,2560,90,2640,92.5C2720,95,2800,115,2880,110C2960,105,3040,75,3120,62.5C3200,50,3280,55,3360,52.5C3440,50,3520,40,3600,50C3680,60,3760,90,3840,92.5C3920,95,4000,70,4080,70C4160,70,4240,95,4320,90C4400,85,4480,50,4560,45C4640,40,4720,65,4800,65C4880,65,4960,40,5040,27.5C5120,15,5200,15,5280,27.5C5360,40,5440,65,5520,75C5600,85,5680,80,5720,77.5L5760,75L5760,150L5720,150C5680,150,5600,150,5520,150C5440,150,5360,150,5280,150C5200,150,5120,150,5040,150C4960,150,4880,150,4800,150C4720,150,4640,150,4560,150C4480,150,4400,150,4320,150C4240,150,4160,150,4080,150C4000,150,3920,150,3840,150C3760,150,3680,150,3600,150C3520,150,3440,150,3360,150C3280,150,3200,150,3120,150C3040,150,2960,150,2880,150C2800,150,2720,150,2640,150C2560,150,2480,150,2400,150C2320,150,2240,150,2160,150C2080,150,2000,150,1920,150C1840,150,1760,150,1680,150C1600,150,1520,150,1440,150C1360,150,1280,150,1200,150C1120,150,1040,150,960,150C880,150,800,150,720,150C640,150,560,150,480,150C400,150,320,150,240,150C160,150,80,150,40,150L0,150Z"></path></svg>