<svg id="wave" style="transform:rotate(0deg); transition: 0.3s" viewBox="0 0 1440 140" version="1.1" xmlns="http://www.w3.org/2000/svg"><defs><linearGradient id="sw-gradient-0" x1="0" x2="0" y1="1" y2="0"><stop stop-color="rgba(243, 244, 245, 1)" offset="0%"></stop><stop stop-color="rgba(243, 244, 245, 1)" offset="100%"></stop></linearGradient></defs><path style="transform:translate(0, 0px); opacity:1" fill="url(#sw-gradient-0)" d="M0,70L60,60.7C120,51,240,33,360,28C480,23,600,33,720,42C840,51,960,61,1080,65.3C1200,70,1320,70,1440,60.7C1560,51,1680,33,1800,42C1920,51,2040,89,2160,98C2280,107,2400,89,2520,72.3C2640,56,2760,42,2880,35C3000,28,3120,28,3240,23.3C3360,19,3480,9,3600,11.7C3720,14,3840,28,3960,42C4080,56,4200,70,4320,81.7C4440,93,4560,103,4680,102.7C4800,103,4920,93,5040,86.3C5160,79,5280,75,5400,70C5520,65,5640,61,5760,67.7C5880,75,6000,93,6120,93.3C6240,93,6360,75,6480,58.3C6600,42,6720,28,6840,28C6960,28,7080,42,7200,44.3C7320,47,7440,37,7560,44.3C7680,51,7800,75,7920,91C8040,107,8160,117,8280,116.7C8400,117,8520,107,8580,102.7L8640,98L8640,140L8580,140C8520,140,8400,140,8280,140C8160,140,8040,140,7920,140C7800,140,7680,140,7560,140C7440,140,7320,140,7200,140C7080,140,6960,140,6840,140C6720,140,6600,140,6480,140C6360,140,6240,140,6120,140C6000,140,5880,140,5760,140C5640,140,5520,140,5400,140C5280,140,5160,140,5040,140C4920,140,4800,140,4680,140C4560,140,4440,140,4320,140C4200,140,4080,140,3960,140C3840,140,3720,140,3600,140C3480,140,3360,140,3240,140C3120,140,3000,140,2880,140C2760,140,2640,140,2520,140C2400,140,2280,140,2160,140C2040,140,1920,140,1800,140C1680,140,1560,140,1440,140C1320,140,1200,140,1080,140C960,140,840,140,720,140C600,140,480,140,360,140C240,140,120,140,60,140L0,140Z"></path></svg>