<svg id="wave" style="transform:rotate(180deg); transition: 0.3s" viewBox="0 0 1440 140" version="1.1" xmlns="http://www.w3.org/2000/svg"><defs><linearGradient id="sw-gradient-0" x1="0" x2="0" y1="1" y2="0"><stop stop-color="rgba(243, 244, 245, 1)" offset="0%"></stop><stop stop-color="rgba(243, 244, 245, 1)" offset="100%"></stop></linearGradient></defs><path style="transform:translate(0, 0px); opacity:1" fill="url(#sw-gradient-0)" d="M0,56L60,56C120,56,240,56,360,60.7C480,65,600,75,720,72.3C840,70,960,56,1080,44.3C1200,33,1320,23,1440,16.3C1560,9,1680,5,1800,14C1920,23,2040,47,2160,58.3C2280,70,2400,70,2520,72.3C2640,75,2760,79,2880,72.3C3000,65,3120,47,3240,32.7C3360,19,3480,9,3600,11.7C3720,14,3840,28,3960,28C4080,28,4200,14,4320,25.7C4440,37,4560,75,4680,93.3C4800,112,4920,112,5040,95.7C5160,79,5280,47,5400,49C5520,51,5640,89,5760,105C5880,121,6000,117,6120,95.7C6240,75,6360,37,6480,23.3C6600,9,6720,19,6840,37.3C6960,56,7080,84,7200,86.3C7320,89,7440,65,7560,63C7680,61,7800,79,7920,81.7C8040,84,8160,70,8280,67.7C8400,65,8520,75,8580,79.3L8640,84L8640,140L8580,140C8520,140,8400,140,8280,140C8160,140,8040,140,7920,140C7800,140,7680,140,7560,140C7440,140,7320,140,7200,140C7080,140,6960,140,6840,140C6720,140,6600,140,6480,140C6360,140,6240,140,6120,140C6000,140,5880,140,5760,140C5640,140,5520,140,5400,140C5280,140,5160,140,5040,140C4920,140,4800,140,4680,140C4560,140,4440,140,4320,140C4200,140,4080,140,3960,140C3840,140,3720,140,3600,140C3480,140,3360,140,3240,140C3120,140,3000,140,2880,140C2760,140,2640,140,2520,140C2400,140,2280,140,2160,140C2040,140,1920,140,1800,140C1680,140,1560,140,1440,140C1320,140,1200,140,1080,140C960,140,840,140,720,140C600,140,480,140,360,140C240,140,120,140,60,140L0,140Z"></path></svg>