<svg id="wave" style="transform:rotate(0deg); transition: 0.3s" viewBox="0 0 1440 140" version="1.1" xmlns="http://www.w3.org/2000/svg"><defs><linearGradient id="sw-gradient-0" x1="0" x2="0" y1="1" y2="0"><stop stop-color="rgba(243, 244, 245, 1)" offset="0%"></stop><stop stop-color="rgba(243, 244, 245, 1)" offset="100%"></stop></linearGradient></defs><path style="transform:translate(0, 0px); opacity:1" fill="url(#sw-gradient-0)" d="M0,14L60,32.7C120,51,240,89,360,100.3C480,112,600,98,720,86.3C840,75,960,65,1080,51.3C1200,37,1320,19,1440,9.3C1560,0,1680,0,1800,18.7C1920,37,2040,75,2160,91C2280,107,2400,103,2520,102.7C2640,103,2760,107,2880,109.7C3000,112,3120,112,3240,112C3360,112,3480,112,3600,95.7C3720,79,3840,47,3960,28C4080,9,4200,5,4320,21C4440,37,4560,75,4680,81.7C4800,89,4920,65,5040,60.7C5160,56,5280,70,5400,72.3C5520,75,5640,65,5760,60.7C5880,56,6000,56,6120,58.3C6240,61,6360,65,6480,60.7C6600,56,6720,42,6840,46.7C6960,51,7080,75,7200,72.3C7320,70,7440,42,7560,28C7680,14,7800,14,7920,25.7C8040,37,8160,61,8280,70C8400,79,8520,75,8580,72.3L8640,70L8640,140L8580,140C8520,140,8400,140,8280,140C8160,140,8040,140,7920,140C7800,140,7680,140,7560,140C7440,140,7320,140,7200,140C7080,140,6960,140,6840,140C6720,140,6600,140,6480,140C6360,140,6240,140,6120,140C6000,140,5880,140,5760,140C5640,140,5520,140,5400,140C5280,140,5160,140,5040,140C4920,140,4800,140,4680,140C4560,140,4440,140,4320,140C4200,140,4080,140,3960,140C3840,140,3720,140,3600,140C3480,140,3360,140,3240,140C3120,140,3000,140,2880,140C2760,140,2640,140,2520,140C2400,140,2280,140,2160,140C2040,140,1920,140,1800,140C1680,140,1560,140,1440,140C1320,140,1200,140,1080,140C960,140,840,140,720,140C600,140,480,140,360,140C240,140,120,140,60,140L0,140Z"></path></svg>